<svg width="19" height="19" viewBox="0 0 19 19" fill="none" xmlns="http://www.w3.org/2000/svg">
<path d="M15.2958 4.40325C15.1755 4.34106 15.0585 4.27289 14.9451 4.199C14.6155 3.98107 14.3133 3.72431 14.0449 3.43425C13.3728 2.66554 13.1219 1.88575 13.03 1.34029H13.0332C12.9564 0.886667 12.9881 0.59375 12.9936 0.59375H9.93382V12.4236C9.93382 12.582 9.93382 12.7395 9.92749 12.8947C9.92749 12.9137 9.92511 12.9311 9.92432 12.9525C9.92432 12.9604 9.92432 12.9699 9.92195 12.9786V12.9857C9.88981 13.4101 9.75388 13.82 9.5261 14.1795C9.29832 14.539 8.98568 14.8369 8.6157 15.0472C8.2297 15.2668 7.79312 15.382 7.34903 15.3813C5.92403 15.3813 4.7682 14.2191 4.7682 12.7838C4.7682 11.3478 5.92403 10.1856 7.34903 10.1856C7.61899 10.1856 7.88736 10.2283 8.14386 10.3123L8.14782 7.19625C7.36883 7.09575 6.57747 7.15783 5.82368 7.37857C5.06989 7.59931 4.37004 7.97392 3.76832 8.47875C3.24096 8.93676 2.79757 9.48329 2.45811 10.0938C2.32907 10.3162 1.8414 11.2116 1.78282 12.6635C1.74561 13.4868 1.9934 14.3418 2.11136 14.6941V14.702C2.18499 14.9095 2.47315 15.6188 2.94182 16.2165C3.31976 16.6963 3.7663 17.1177 4.26707 17.4673V17.4594L4.2742 17.4673C5.75461 18.4727 7.39732 18.407 7.39732 18.407C7.68153 18.3952 8.6339 18.407 9.71532 17.8948C10.9147 17.3264 11.5971 16.4801 11.5971 16.4801C12.0334 15.9743 12.3804 15.398 12.6231 14.7757C12.9002 14.0473 12.992 13.1749 12.992 12.8266V6.54946C13.0292 6.57162 13.524 6.89858 13.524 6.89858C13.524 6.89858 14.2365 7.35538 15.3472 7.65225C16.1437 7.86363 17.2179 7.90875 17.2179 7.90875V4.87113C16.8419 4.91229 16.0779 4.79354 15.295 4.40404L15.2958 4.40325Z" fill="white"/>
</svg>
