<svg width="18" height="18" viewBox="0 0 18 18" fill="none" xmlns="http://www.w3.org/2000/svg">
<g clip-path="url(#clip0_208_24193)">
<path d="M3.5292 0.00439453C1.5903 0.00439453 0.00341797 1.59124 0.00341797 3.53018V14.4713C0.00341797 16.4102 1.59026 17.9965 3.5292 17.9965H14.4703C16.4093 17.9965 17.9956 16.4102 17.9956 14.4713V3.53018C17.9956 1.59127 16.4093 0.00439453 14.4703 0.00439453H3.5292ZM4.41599 2.97346C5.34566 2.97346 5.91829 3.58377 5.93597 4.38601C5.93597 5.17054 5.34562 5.798 4.39801 5.798H4.38057C3.4686 5.798 2.87915 5.17058 2.87915 4.38601C2.87915 3.58378 3.48644 2.97346 4.41597 2.97346H4.41599ZM12.4274 6.72304C14.2154 6.72304 15.5557 7.89163 15.5557 10.4029V15.091H12.8385V10.7172C12.8385 9.61812 12.4453 8.86828 11.4619 8.86828C10.7113 8.86828 10.2638 9.37368 10.0674 9.86192C9.9956 10.0366 9.97796 10.2805 9.97796 10.5249V15.091H7.2608C7.2608 15.091 7.29646 7.68193 7.2608 6.91477H9.97851V8.07261C10.3396 7.51551 10.9855 6.72302 12.4274 6.72302V6.72304ZM3.03942 6.91537H5.75658V15.091H3.03942V6.91537Z" fill="#7B7B7B"/>
</g>
<defs>
<clipPath id="clip0_208_24193">
<rect width="18" height="18" fill="white"/>
</clipPath>
</defs>
</svg>
