<svg width="19" height="19" viewBox="0 0 19 19" fill="none" xmlns="http://www.w3.org/2000/svg">
<g clip-path="url(#clip0_208_24191)">
<path d="M19.6591 3.15953C18.907 3.49278 18.0991 3.71794 17.2498 3.81972C18.1261 3.29534 18.7818 2.47004 19.0943 1.4978C18.271 1.98685 17.3699 2.33109 16.4302 2.51555C15.7982 1.84083 14.9612 1.39361 14.0491 1.24333C13.137 1.09306 12.2007 1.24812 11.3857 1.68446C10.5708 2.1208 9.92264 2.814 9.542 3.65643C9.16136 4.49886 9.06949 5.4434 9.28066 6.34339C7.61235 6.25962 5.98028 5.826 4.49039 5.07066C3.00051 4.31532 1.68609 3.25514 0.632452 1.95894C0.272185 2.5804 0.0650312 3.30093 0.0650312 4.0683C0.0646293 4.75911 0.234746 5.43934 0.560289 6.04863C0.885832 6.65792 1.35673 7.17744 1.93122 7.56109C1.26497 7.53989 0.613424 7.35987 0.0308059 7.036V7.09004C0.0307387 8.05893 0.365884 8.998 0.979374 9.74791C1.59286 10.4978 2.44691 11.0124 3.3966 11.2043C2.77855 11.3716 2.13057 11.3962 1.5016 11.2763C1.76954 12.11 2.29148 12.839 2.99433 13.3613C3.69719 13.8836 4.54578 14.1731 5.4213 14.1891C3.93505 15.3558 2.09954 15.9887 0.210039 15.9859C-0.124667 15.986 -0.459089 15.9665 -0.791504 15.9274C1.12645 17.1606 3.35908 17.815 5.63926 17.8125C13.358 17.8125 17.5776 11.4196 17.5776 5.87504C17.5776 5.69491 17.5731 5.51297 17.565 5.33284C18.3858 4.73928 19.0943 4.00426 19.6573 3.16223L19.6591 3.15953Z" fill="#7B7B7B"/>
</g>
<defs>
<clipPath id="clip0_208_24191">
<rect width="19" height="19" fill="white"/>
</clipPath>
</defs>
</svg>
