<svg width="298" height="40" viewBox="0 0 298 40" fill="none" xmlns="http://www.w3.org/2000/svg">
<path d="M0.476877 30.3063L8.23385 30.3063L15.7216 15.691C17.9266 11.7221 19.1732 10.554 21.4042 9.80757C19.0981 5.62954 13.0608 5.72378 10.8862 9.97176L0.476877 30.3063Z" fill="url(#paint0_linear_202_19)"/>
<path d="M48.2814 9.01973L40.5244 9.01973L32.7234 24.3627C30.5183 28.3317 29.2717 29.4998 27.0408 30.2461C29.7395 34.3514 35.8741 33.9821 38.0608 29.5827L48.2814 9.01973Z" fill="url(#paint1_linear_202_19)"/>
<path fill-rule="evenodd" clip-rule="evenodd" d="M32.0376 25.2608L32.0462 25.2553L22.4321 9.23205C19.9152 5.03721 13.8417 5.0198 11.3008 9.20016C13.4699 9.73805 14.7839 10.7261 17.0655 14.0649L17.0572 14.0708L26.6713 30.094C29.1882 34.2888 35.2617 34.3062 37.8026 30.1259C35.6334 29.588 34.3195 28.5998 32.0376 25.2608Z" fill="url(#paint2_linear_202_19)"/>
<path d="M69.718 15.0091L67.7812 20.8405H71.6337L69.718 15.0091ZM63.5497 26.2509V25.2615L65.276 25.0088L69.6759 12.2092H71.4021L75.802 25.1141L77.2336 25.2825V26.2509H71.1495V25.2825L73.0021 25.0509L71.9916 21.9352H67.4022L66.3917 24.9878L68.2233 25.2615V26.2509H63.5497ZM79.8251 13.2828V12.2934H86.1829V13.2828L84.3724 13.4933L87.046 19.3458L89.7828 13.5354L88.0986 13.2828V12.2934H92.688V13.2828L91.0038 13.5565L87.6144 20.5037C87.6144 21.43 87.6144 22.258 87.6144 22.9878C87.6144 23.7036 87.6214 24.3913 87.6355 25.0509L89.6354 25.2615V26.2509H82.8777V25.2615L84.8566 25.0509C84.8706 24.4334 84.8776 23.7878 84.8776 23.1141C84.8776 22.4264 84.8776 21.6545 84.8776 20.7984L81.2777 13.4302L79.8251 13.2828ZM97.3366 16.1248L97.4629 12.2934H109.399L109.505 16.1248H108.052L107.61 13.4091H104.831C104.817 14.2933 104.803 15.1915 104.789 16.1038C104.789 17.002 104.789 17.9073 104.789 18.8195V19.7248C104.789 20.6089 104.789 21.5002 104.789 22.3984C104.803 23.2826 104.817 24.1668 104.831 25.0509L106.81 25.2615V26.2509H100.031V25.2615L102.01 25.0509C102.038 24.1808 102.052 23.3036 102.052 22.4194C102.052 21.5212 102.052 20.623 102.052 19.7248V18.8195C102.052 17.9213 102.052 17.0231 102.052 16.1248C102.052 15.2126 102.038 14.3073 102.01 13.4091H99.2523L98.8102 16.1248H97.3366ZM121.073 26.6088C120.231 26.6088 119.417 26.4544 118.631 26.1457C117.845 25.8369 117.136 25.3737 116.504 24.7562C115.887 24.1387 115.396 23.3738 115.031 22.4615C114.68 21.5493 114.504 20.4826 114.504 19.2616C114.504 18.0827 114.687 17.0371 115.052 16.1248C115.417 15.2126 115.908 14.4477 116.525 13.8302C117.143 13.1986 117.845 12.7284 118.631 12.4197C119.417 12.0969 120.231 11.9355 121.073 11.9355C121.915 11.9355 122.722 12.0899 123.494 12.3986C124.28 12.7074 124.981 13.1705 125.599 13.7881C126.216 14.3916 126.708 15.1564 127.073 16.0827C127.437 16.995 127.62 18.0546 127.62 19.2616C127.62 20.4405 127.437 21.4861 127.073 22.3984C126.722 23.3106 126.23 24.0825 125.599 24.7141C124.981 25.3316 124.28 25.8018 123.494 26.1246C122.722 26.4474 121.915 26.6088 121.073 26.6088ZM121.073 25.472C121.915 25.472 122.595 25.1843 123.115 24.6089C123.634 24.0334 124.013 23.2755 124.252 22.3352C124.504 21.3949 124.63 20.3704 124.63 19.2616C124.63 18.1529 124.504 17.1283 124.252 16.188C124.013 15.2477 123.634 14.4898 123.115 13.9144C122.595 13.3389 121.915 13.0512 121.073 13.0512C120.231 13.0512 119.543 13.3389 119.01 13.9144C118.476 14.4898 118.083 15.2477 117.831 16.188C117.592 17.1283 117.473 18.1529 117.473 19.2616C117.473 20.3704 117.592 21.3949 117.831 22.3352C118.083 23.2755 118.476 24.0334 119.01 24.6089C119.543 25.1843 120.231 25.472 121.073 25.472ZM141.421 13.2828V12.2934H146.726V13.2828L144.937 13.5565V26.3351H143.695L135.758 15.4301V24.9667L138.074 25.2615V26.2509H132.769V25.2615L134.558 25.0088V13.767L134.305 13.4302L132.832 13.2828V12.2934H136.811L143.737 21.8089V13.5565L141.421 13.2828Z" fill="white"/>
<path d="M163.097 11.7767V11.1872H168.381V11.8188L166.149 11.9662L170.149 23.7764L173.981 11.9662L171.812 11.8188V11.1872H176.633V11.7767L174.76 11.9662L170.297 25.5237H169.707L164.928 11.9451L163.097 11.7767ZM181.84 11.7767V11.1872H192.008L192.198 14.6187H191.419L191.019 11.882H185.187C185.173 12.8363 185.159 13.8117 185.145 14.8082C185.145 15.7906 185.145 16.8011 185.145 17.8397H188.913L189.145 15.8187H189.777V20.5344H189.145L188.913 18.5134H185.145C185.145 19.7204 185.145 20.8221 185.145 21.8186C185.159 22.815 185.173 23.7694 185.187 24.6817H191.377L191.755 21.9449H192.534L192.366 25.3764H181.84V24.7869L183.987 24.6185C184.001 23.6641 184.008 22.7098 184.008 21.7554C184.008 20.787 184.008 19.8186 184.008 18.8502V17.7134C184.008 16.745 184.008 15.7836 184.008 14.8293C184.008 13.8609 184.001 12.8995 183.987 11.9451L181.84 11.7767ZM207.114 11.7767V11.1872H211.998V11.7767L210.125 11.9662V25.5237H209.598L200.925 13.103V24.5974L203.241 24.7869V25.3764H198.336V24.7869L200.188 24.5974V12.0504L200.083 11.903L198.251 11.7767V11.1872H200.988L209.409 23.3343V11.9662L207.114 11.7767ZM217.249 14.7451L217.438 11.1872H228.785L228.975 14.7451H228.196L227.796 11.882H223.712C223.698 12.8363 223.691 13.7977 223.691 14.7661C223.691 15.7345 223.691 16.7169 223.691 17.7134V18.8502C223.691 19.8186 223.691 20.787 223.691 21.7554C223.691 22.7098 223.698 23.6641 223.712 24.6185L226.07 24.7869V25.3764H220.154V24.7869L222.512 24.6185C222.526 23.6641 222.533 22.7098 222.533 21.7554C222.533 20.787 222.533 19.8186 222.533 18.8502V17.7134C222.533 16.731 222.533 15.7556 222.533 14.7872C222.533 13.8047 222.526 12.8363 222.512 11.882H218.428L218.028 14.7451H217.249ZM242.72 11.7767V11.1872H247.709V11.7767L245.836 11.9662V19.9449C245.836 21.8817 245.415 23.3203 244.573 24.2606C243.73 25.2009 242.524 25.6711 240.952 25.6711C239.983 25.6711 239.134 25.4816 238.404 25.1027C237.675 24.7238 237.106 24.1273 236.699 23.3133C236.306 22.4852 236.11 21.4186 236.11 20.1133V17.7766C236.11 16.8082 236.11 15.8327 236.11 14.8503C236.11 13.8679 236.096 12.8995 236.068 11.9451L234.152 11.7767V11.1872H239.52V11.7767L237.267 11.9662C237.253 12.9205 237.246 13.8819 237.246 14.8503C237.246 15.8187 237.246 16.7941 237.246 17.7766V19.7765C237.246 20.9975 237.401 21.9729 237.71 22.7028C238.032 23.4185 238.482 23.9378 239.057 24.2606C239.632 24.5834 240.306 24.7448 241.078 24.7448C242.481 24.7448 243.506 24.3378 244.152 23.5238C244.797 22.7098 245.12 21.3344 245.12 19.3976V11.9872L242.72 11.7767ZM258.906 11.8609H256.675C256.661 12.8293 256.647 13.8258 256.633 14.8503C256.633 15.8608 256.633 16.9555 256.633 18.1344H258.948C260.057 18.1344 260.941 17.8257 261.601 17.2082C262.261 16.5906 262.59 15.8187 262.59 14.8924C262.59 13.9521 262.296 13.2153 261.706 12.6819C261.117 12.1346 260.183 11.8609 258.906 11.8609ZM253.327 11.7767V11.1872H258.948C260.492 11.1872 261.678 11.51 262.506 12.1556C263.334 12.7872 263.748 13.6995 263.748 14.8924C263.748 15.8187 263.439 16.6187 262.822 17.2924C262.218 17.966 261.362 18.4011 260.254 18.5976C260.801 18.7379 261.222 18.9835 261.517 19.3344C261.811 19.6853 262.071 20.1976 262.296 20.8712L263.58 24.6395L265.475 24.7869V25.3764C265.334 25.4185 265.138 25.4536 264.885 25.4816C264.646 25.5097 264.373 25.5237 264.064 25.5237C263.503 25.5237 263.103 25.4465 262.864 25.2922C262.625 25.1237 262.45 24.8641 262.338 24.5132L261.201 20.8923C261.047 20.359 260.857 19.9379 260.633 19.6291C260.422 19.3204 260.134 19.1028 259.769 18.9765C259.405 18.8362 258.913 18.766 258.296 18.766H256.633C256.633 19.8607 256.633 20.8853 256.633 21.8396C256.647 22.7799 256.661 23.7062 256.675 24.6185L258.822 24.7869V25.3764H253.327V24.7869L255.475 24.6185C255.489 23.6641 255.496 22.7098 255.496 21.7554C255.496 20.787 255.496 19.8186 255.496 18.8502V17.7134C255.496 16.745 255.496 15.7836 255.496 14.8293C255.496 13.8609 255.489 12.8995 255.475 11.9451L253.327 11.7767ZM270.978 11.7767V11.1872H281.147L281.336 14.6187H280.557L280.157 11.882H274.326C274.312 12.8363 274.298 13.8117 274.284 14.8082C274.284 15.7906 274.284 16.8011 274.284 17.8397H278.052L278.283 15.8187H278.915V20.5344H278.283L278.052 18.5134H274.284C274.284 19.7204 274.284 20.8221 274.284 21.8186C274.298 22.815 274.312 23.7694 274.326 24.6817H280.515L280.894 21.9449H281.673L281.504 25.3764H270.978V24.7869L273.126 24.6185C273.14 23.6641 273.147 22.7098 273.147 21.7554C273.147 20.787 273.147 19.8186 273.147 18.8502V17.7134C273.147 16.745 273.147 15.7836 273.147 14.8293C273.147 13.8609 273.14 12.8995 273.126 11.9451L270.978 11.7767ZM291.558 25.6711C290.744 25.6711 289.986 25.5588 289.284 25.3343C288.583 25.0957 288.007 24.829 287.558 24.5343L287.663 21.7765H288.421L288.737 24.2185C289.186 24.4852 289.621 24.6746 290.042 24.7869C290.477 24.8992 290.976 24.9553 291.537 24.9553C292.632 24.9553 293.523 24.7097 294.211 24.2185C294.912 23.7133 295.263 22.9694 295.263 21.987C295.263 21.4958 295.165 21.0747 294.969 20.7239C294.786 20.359 294.47 20.0291 294.021 19.7344C293.572 19.4256 292.955 19.1169 292.169 18.8081L291.39 18.4923C290.281 18.0432 289.432 17.5029 288.842 16.8713C288.267 16.2398 287.979 15.4468 287.979 14.4924C287.979 13.6784 288.176 13.0118 288.569 12.4925C288.976 11.9592 289.502 11.5592 290.148 11.2925C290.807 11.0258 291.516 10.8925 292.274 10.8925C293.018 10.8925 293.649 10.9908 294.169 11.1872C294.702 11.3697 295.207 11.6223 295.684 11.9451L295.6 14.5556H294.821L294.505 12.1767C293.86 11.7837 293.109 11.5872 292.253 11.5872C291.313 11.5872 290.534 11.8118 289.916 12.2609C289.313 12.696 289.011 13.3696 289.011 14.2819C289.011 15.0398 289.235 15.6503 289.684 16.1134C290.148 16.5766 290.786 16.9696 291.6 17.2924L292.421 17.6081C293.432 18.0011 294.218 18.4011 294.779 18.8081C295.34 19.2151 295.733 19.6642 295.958 20.1554C296.183 20.6326 296.295 21.194 296.295 21.8396C296.295 22.6256 296.091 23.3062 295.684 23.8817C295.277 24.4571 294.716 24.8992 294 25.208C293.284 25.5167 292.47 25.6711 291.558 25.6711Z" fill="white" fill-opacity="0.8"/>
<defs>
<linearGradient id="paint0_linear_202_19" x1="4.08478" y1="32.9177" x2="17.9752" y2="6.94086" gradientUnits="userSpaceOnUse">
<stop stop-color="white"/>
<stop offset="1" stop-color="#8D8D8D"/>
</linearGradient>
<linearGradient id="paint1_linear_202_19" x1="42.5088" y1="11.0041" x2="35.1126" y2="33.1926" gradientUnits="userSpaceOnUse">
<stop stop-color="white"/>
<stop offset="1" stop-color="#787878"/>
</linearGradient>
<linearGradient id="paint2_linear_202_19" x1="33.4848" y1="33.1926" x2="11.4848" y2="1.0613" gradientUnits="userSpaceOnUse">
<stop stop-color="#B0B0B0"/>
<stop offset="1" stop-color="white"/>
</linearGradient>
</defs>
</svg>
